<?xml version="1.0" encoding="UTF-8" standalone="no"?>
<svg
   xmlns:dc="http://purl.org/dc/elements/1.1/"
   xmlns:cc="http://creativecommons.org/ns#"
   xmlns:rdf="http://www.w3.org/1999/02/22-rdf-syntax-ns#"
   xmlns:svg="http://www.w3.org/2000/svg"
   xmlns="http://www.w3.org/2000/svg"
   xmlns:sodipodi="http://sodipodi.sourceforge.net/DTD/sodipodi-0.dtd"
   xmlns:inkscape="http://www.inkscape.org/namespaces/inkscape"
   version="1.1"
   id="Layer_1"
   x="0px"
   y="0px"
   viewBox="0 0 2097.64 1241.57"
   style="enable-background:new 0 0 2097.64 1241.57;"
   xml:space="preserve"
   sodipodi:docname="big_gear.svg"
   inkscape:version="1.0beta2 (2b71d25, 2019-12-03)"><metadata
   id="metadata848"><rdf:RDF><cc:Work
       rdf:about=""><dc:format>image/svg+xml</dc:format><dc:type
         rdf:resource="http://purl.org/dc/dcmitype/StillImage" /><dc:title /></cc:Work></rdf:RDF></metadata><defs
   id="defs846" /><sodipodi:namedview
   pagecolor="#ffffff"
   bordercolor="#666666"
   inkscape:document-rotation="0"
   borderopacity="1"
   objecttolerance="10"
   gridtolerance="10"
   guidetolerance="10"
   inkscape:pageopacity="0"
   inkscape:pageshadow="2"
   inkscape:window-width="1280"
   inkscape:window-height="703"
   id="namedview844"
   showgrid="false"
   inkscape:zoom="1.0484477"
   inkscape:cx="969.69791"
   inkscape:cy="637.02922"
   inkscape:window-x="0"
   inkscape:window-y="23"
   inkscape:window-maximized="1"
   inkscape:current-layer="Layer_1" />
<style
   type="text/css"
   id="style833">
	.st0{fill:none;stroke:#FF0000;stroke-width:1.000000e-03;stroke-miterlimit:10;}
	.st1{fill:none;stroke:#FF0000;stroke-width:1.000000e-03;stroke-linecap:round;stroke-linejoin:round;stroke-miterlimit:10;}
</style>



<g
   transform="matrix(1.3282897,0,0,1.3282897,-286.46015,-164.58587)"
   id="g844"><path
     inkscape:connector-curvature="0"
     class="st0"
     d="m 915.35999,527.53998 a 8.5,8.5 0 0 1 -8.5,8.5 8.5,8.5 0 0 1 -8.5,-8.5 8.5,8.5 0 0 1 8.5,-8.5 8.5,8.5 0 0 1 8.5,8.5"
     style="fill:none;stroke:#ff0000;stroke-width:1.33333;stroke-miterlimit:10;stroke-dasharray:none"
     id="circle837" /><path
     inkscape:connector-curvature="0"
     class="st0"
     d="m 1060.2,567.09003 a 11.34,11.34 0 0 1 -11.34,11.34 11.34,11.34 0 0 1 -11.34,-11.34 11.34,11.34 0 0 1 11.34,-11.34 11.34,11.34 0 0 1 11.34,11.34"
     style="fill:none;stroke:#ff0000;stroke-width:1.33333;stroke-miterlimit:10;stroke-dasharray:none"
     id="circle839" /><path
     inkscape:connector-curvature="0"
     style="stroke-width:1.33333;stroke-miterlimit:10;stroke-dasharray:none"
     id="path841"
     d="m 1210.43,567.55 c 0,-0.3 0,-0.6 0,-0.91 0,-0.73 0.46,-1.38 1.15,-1.61 4.36,-1.5 8.66,-3.18 12.88,-5.03 -0.06,-1.4 -0.13,-2.81 -0.22,-4.21 -4.39,-1.4 -8.84,-2.62 -13.34,-3.65 -0.71,-0.16 -1.24,-0.76 -1.31,-1.48 -0.03,-0.3 -0.06,-0.6 -0.09,-0.9 -0.08,-0.72 0.31,-1.42 0.97,-1.72 4.18,-1.95 8.28,-4.07 12.29,-6.35 -0.2,-1.39 -0.42,-2.78 -0.66,-4.16 -4.52,-0.93 -9.07,-1.68 -13.65,-2.24 -0.72,-0.09 -1.31,-0.63 -1.46,-1.34 -0.06,-0.3 -0.12,-0.59 -0.19,-0.89 -0.15,-0.71 0.16,-1.44 0.79,-1.82 3.95,-2.37 7.81,-4.91 11.56,-7.6 -0.35,-1.36 -0.71,-2.72 -1.09,-4.07 -4.59,-0.45 -9.2,-0.72 -13.81,-0.8 -0.73,-0.01 -1.37,-0.49 -1.59,-1.18 -0.09,-0.29 -0.19,-0.58 -0.28,-0.86 -0.23,-0.69 0.01,-1.45 0.59,-1.89 3.68,-2.77 7.25,-5.7 10.7,-8.76 -0.49,-1.32 -0.99,-2.63 -1.51,-3.93 -4.61,0.03 -9.22,0.24 -13.81,0.65 -0.64,0.06 -1.23,-0.27 -1.57,-0.79 H 900.93 c -0.34,0.53 -0.93,0.85 -1.57,0.79 -4.59,-0.4 -9.2,-0.62 -13.81,-0.65 -0.52,1.3 -1.02,2.62 -1.51,3.93 3.45,3.06 7.02,5.99 10.7,8.76 0.58,0.44 0.82,1.2 0.59,1.89 -0.09,0.29 -0.19,0.57 -0.28,0.86 -0.22,0.69 -0.86,1.17 -1.59,1.18 -4.61,0.08 -9.22,0.35 -13.81,0.8 -0.38,1.35 -0.74,2.71 -1.09,4.07 3.75,2.69 7.6,5.22 11.56,7.6 0.62,0.37 0.94,1.1 0.79,1.82 -0.06,0.3 -0.13,0.59 -0.19,0.89 -0.15,0.71 -0.74,1.25 -1.46,1.34 -4.58,0.56 -9.13,1.31 -13.65,2.24 -0.24,1.38 -0.46,2.77 -0.66,4.16 4.01,2.28 8.11,4.4 12.29,6.35 0.66,0.31 1.05,1 0.97,1.72 -0.03,0.3 -0.06,0.6 -0.09,0.9 -0.07,0.72 -0.6,1.32 -1.31,1.48 -4.49,1.04 -8.94,2.25 -13.34,3.65 -0.09,1.4 -0.16,2.8 -0.22,4.21 4.22,1.85 8.52,3.53 12.88,5.03 0.69,0.24 1.15,0.89 1.15,1.61 0,0.3 0,0.6 0,0.91 0,0.73 -0.46,1.38 -1.15,1.61 -4.36,1.5 -8.66,3.18 -12.88,5.03 0.06,1.4 0.13,2.81 0.22,4.21 4.39,1.4 8.84,2.62 13.34,3.65 0.71,0.16 1.24,0.76 1.31,1.48 0.03,0.3 0.06,0.6 0.09,0.9 0.08,0.72 -0.31,1.42 -0.97,1.72 -4.18,1.95 -8.28,4.07 -12.29,6.35 0.2,1.39 0.42,2.78 0.66,4.16 4.52,0.93 9.07,1.68 13.65,2.24 0.72,0.09 1.31,0.63 1.46,1.34 0.06,0.3 0.12,0.59 0.19,0.89 0.15,0.71 -0.16,1.44 -0.79,1.82 -3.95,2.37 -7.81,4.91 -11.56,7.6 0.35,1.36 0.71,2.72 1.09,4.07 4.59,0.45 9.2,0.72 13.81,0.8 0.73,0.01 1.37,0.49 1.59,1.18 0.09,0.29 0.19,0.58 0.28,0.86 0.23,0.69 -0.01,1.45 -0.59,1.89 -3.68,2.77 -7.25,5.7 -10.7,8.76 0.49,1.32 0.99,2.63 1.51,3.93 4.61,-0.03 9.22,-0.24 13.81,-0.65 0.73,-0.06 1.41,0.34 1.7,1.01 0.12,0.28 0.25,0.55 0.37,0.83 0.3,0.66 0.14,1.44 -0.39,1.94 -3.37,3.14 -6.62,6.42 -9.72,9.83 0.62,1.26 1.26,2.51 1.91,3.75 4.58,-0.51 9.14,-1.21 13.67,-2.09 0.71,-0.14 1.44,0.19 1.8,0.82 0.15,0.26 0.3,0.52 0.45,0.79 0.37,0.63 0.29,1.42 -0.19,1.97 -3.03,3.48 -5.91,7.08 -8.64,10.8 0.75,1.19 1.52,2.36 2.29,3.53 4.5,-0.99 8.97,-2.16 13.38,-3.51 0.7,-0.21 1.45,0.04 1.88,0.63 0.18,0.25 0.35,0.49 0.53,0.73 0.43,0.59 0.44,1.38 0.02,1.98 -2.65,3.78 -5.14,7.66 -7.47,11.64 0.87,1.1 1.75,2.19 2.65,3.27 4.38,-1.45 8.69,-3.08 12.94,-4.88 0.67,-0.28 1.45,-0.11 1.93,0.43 0.2,0.23 0.4,0.45 0.61,0.67 0.49,0.54 0.58,1.33 0.23,1.97 -2.24,4.03 -4.31,8.16 -6.21,12.36 0.98,1 1.97,2 2.98,2.98 4.2,-1.9 8.32,-3.97 12.36,-6.21 0.64,-0.35 1.43,-0.26 1.97,0.23 0.22,0.2 0.45,0.41 0.67,0.61 0.54,0.49 0.72,1.26 0.43,1.93 -1.8,4.24 -3.43,8.56 -4.88,12.94 1.08,0.9 2.17,1.78 3.27,2.65 3.98,-2.33 7.86,-4.82 11.64,-7.47 0.6,-0.42 1.39,-0.41 1.98,0.02 0.24,0.18 0.49,0.36 0.73,0.53 0.59,0.43 0.84,1.18 0.63,1.88 -1.35,4.41 -2.52,8.87 -3.51,13.38 1.17,0.78 2.35,1.54 3.53,2.29 3.71,-2.73 7.32,-5.62 10.8,-8.64 0.55,-0.48 1.34,-0.55 1.97,-0.19 0.26,0.15 0.52,0.3 0.79,0.45 0.63,0.36 0.96,1.09 0.82,1.8 -0.88,4.53 -1.58,9.09 -2.09,13.67 1.24,0.65 2.49,1.29 3.75,1.91 3.41,-3.11 6.69,-6.35 9.83,-9.72 0.5,-0.53 1.28,-0.69 1.94,-0.39 0.28,0.12 0.55,0.25 0.83,0.37 0.67,0.29 1.07,0.98 1.01,1.7 -0.4,4.59 -0.62,9.2 -0.65,13.81 1.3,0.52 2.62,1.02 3.93,1.51 3.06,-3.45 5.99,-7.02 8.76,-10.7 0.44,-0.58 1.2,-0.82 1.89,-0.59 0.29,0.09 0.57,0.19 0.86,0.28 0.69,0.22 1.17,0.86 1.18,1.59 0.08,4.61 0.35,9.22 0.8,13.81 1.35,0.38 2.71,0.74 4.07,1.09 2.69,-3.75 5.22,-7.6 7.6,-11.56 0.37,-0.62 1.1,-0.94 1.82,-0.79 0.3,0.06 0.59,0.13 0.89,0.19 0.71,0.15 1.25,0.74 1.34,1.46 0.56,4.58 1.31,9.13 2.24,13.65 1.38,0.24 2.77,0.46 4.16,0.66 2.28,-4.01 4.4,-8.11 6.35,-12.29 0.31,-0.66 1,-1.05 1.72,-0.97 0.3,0.03 0.6,0.06 0.9,0.09 0.72,0.07 1.32,0.6 1.48,1.31 1.04,4.49 2.26,8.94 3.65,13.34 1.4,0.09 2.8,0.16 4.21,0.22 1.85,-4.22 3.53,-8.52 5.03,-12.88 0.24,-0.69 0.89,-1.15 1.61,-1.15 0.3,0 0.6,0 0.91,0 0.73,0 1.38,0.46 1.61,1.15 1.5,4.36 3.18,8.66 5.03,12.88 1.4,-0.06 2.81,-0.13 4.21,-0.22 1.4,-4.39 2.62,-8.84 3.65,-13.34 0.16,-0.71 0.76,-1.24 1.48,-1.31 0.3,-0.03 0.6,-0.06 0.9,-0.09 0.72,-0.08 1.42,0.31 1.72,0.97 1.95,4.18 4.07,8.28 6.35,12.29 1.39,-0.2 2.78,-0.42 4.16,-0.66 0.93,-4.52 1.68,-9.07 2.24,-13.65 0.09,-0.72 0.63,-1.31 1.34,-1.46 0.3,-0.06 0.59,-0.12 0.89,-0.19 0.71,-0.15 1.44,0.16 1.82,0.79 2.37,3.95 4.91,7.81 7.6,11.56 1.36,-0.35 2.72,-0.71 4.07,-1.09 0.45,-4.59 0.72,-9.2 0.8,-13.81 0.01,-0.73 0.49,-1.37 1.18,-1.59 0.29,-0.09 0.58,-0.19 0.86,-0.28 0.69,-0.23 1.45,0.01 1.89,0.59 2.77,3.68 5.7,7.25 8.76,10.7 1.32,-0.49 2.63,-0.99 3.93,-1.51 -0.03,-4.61 -0.24,-9.22 -0.65,-13.81 -0.06,-0.73 0.34,-1.41 1.01,-1.7 0.28,-0.12 0.55,-0.25 0.83,-0.37 0.66,-0.3 1.44,-0.14 1.94,0.39 3.14,3.37 6.42,6.62 9.83,9.72 1.26,-0.62 2.51,-1.26 3.75,-1.91 -0.51,-4.58 -1.21,-9.14 -2.09,-13.67 -0.14,-0.71 0.19,-1.44 0.82,-1.8 0.26,-0.15 0.52,-0.3 0.79,-0.45 0.63,-0.37 1.42,-0.29 1.97,0.19 3.48,3.03 7.08,5.91 10.8,8.64 1.19,-0.75 2.36,-1.52 3.53,-2.29 -0.99,-4.5 -2.16,-8.97 -3.51,-13.38 -0.21,-0.7 0.04,-1.45 0.63,-1.88 0.24,-0.18 0.49,-0.35 0.73,-0.53 0.59,-0.43 1.38,-0.44 1.98,-0.02 3.78,2.65 7.66,5.14 11.64,7.47 1.1,-0.87 2.19,-1.75 3.27,-2.65 -1.45,-4.38 -3.08,-8.69 -4.88,-12.94 -0.28,-0.67 -0.11,-1.45 0.43,-1.93 0.23,-0.2 0.45,-0.4 0.67,-0.61 0.54,-0.49 1.33,-0.58 1.97,-0.23 4.03,2.24 8.16,4.31 12.36,6.21 1,-0.98 2,-1.97 2.98,-2.98 -1.9,-4.2 -3.97,-8.32 -6.21,-12.36 -0.35,-0.64 -0.26,-1.43 0.23,-1.97 0.2,-0.22 0.41,-0.45 0.61,-0.67 0.49,-0.54 1.26,-0.72 1.93,-0.43 4.24,1.8 8.56,3.43 12.94,4.88 0.9,-1.08 1.78,-2.17 2.65,-3.27 -2.33,-3.98 -4.82,-7.86 -7.47,-11.64 -0.42,-0.6 -0.41,-1.39 0.02,-1.98 0.18,-0.24 0.36,-0.49 0.53,-0.73 0.43,-0.59 1.18,-0.84 1.88,-0.63 4.41,1.35 8.87,2.52 13.38,3.51 0.78,-1.17 1.54,-2.35 2.29,-3.53 -2.73,-3.71 -5.62,-7.32 -8.64,-10.8 -0.48,-0.55 -0.55,-1.34 -0.19,-1.97 0.15,-0.26 0.3,-0.52 0.45,-0.79 0.36,-0.63 1.09,-0.96 1.8,-0.82 4.53,0.88 9.09,1.58 13.67,2.09 0.65,-1.24 1.29,-2.49 1.91,-3.75 -3.11,-3.41 -6.35,-6.69 -9.72,-9.83 -0.53,-0.5 -0.69,-1.28 -0.39,-1.94 0.12,-0.28 0.25,-0.55 0.37,-0.83 0.29,-0.67 0.98,-1.07 1.7,-1.01 4.59,0.4 9.2,0.62 13.81,0.65 0.52,-1.3 1.02,-2.62 1.51,-3.93 -3.45,-3.06 -7.02,-5.99 -10.7,-8.76 -0.58,-0.44 -0.82,-1.2 -0.59,-1.89 0.09,-0.29 0.19,-0.57 0.28,-0.86 0.22,-0.69 0.86,-1.17 1.59,-1.18 4.61,-0.08 9.22,-0.35 13.81,-0.8 0.38,-1.35 0.74,-2.71 1.09,-4.07 -3.75,-2.69 -7.6,-5.22 -11.56,-7.6 -0.62,-0.37 -0.94,-1.1 -0.79,-1.82 0.06,-0.3 0.13,-0.59 0.19,-0.89 0.15,-0.71 0.74,-1.25 1.46,-1.34 4.58,-0.56 9.13,-1.31 13.65,-2.24 0.24,-1.38 0.46,-2.77 0.66,-4.16 -4.01,-2.28 -8.11,-4.4 -12.29,-6.35 -0.66,-0.31 -1.05,-1 -0.97,-1.72 0.03,-0.3 0.06,-0.6 0.09,-0.9 0.07,-0.72 0.6,-1.32 1.31,-1.48 4.49,-1.04 8.94,-2.25 13.34,-3.65 0.09,-1.4 0.16,-2.8 0.22,-4.21 -4.22,-1.85 -8.52,-3.53 -12.88,-5.03 -0.67,-0.24 -1.13,-0.89 -1.13,-1.61 z"
     class="st1" /></g>
</svg>
