<?xml version="1.0" encoding="UTF-8" standalone="no"?>
<svg
   xmlns:dc="http://purl.org/dc/elements/1.1/"
   xmlns:cc="http://creativecommons.org/ns#"
   xmlns:rdf="http://www.w3.org/1999/02/22-rdf-syntax-ns#"
   xmlns:svg="http://www.w3.org/2000/svg"
   xmlns="http://www.w3.org/2000/svg"
   xmlns:sodipodi="http://sodipodi.sourceforge.net/DTD/sodipodi-0.dtd"
   xmlns:inkscape="http://www.inkscape.org/namespaces/inkscape"
   inkscape:version="1.0beta2 (2b71d25, 2019-12-03)"
   sodipodi:docname="waterjet.svg"
   xml:space="preserve"
   style="enable-background:new 0 0 2097.64 1241.57;"
   viewBox="0 0 2097.64 1241.57"
   y="0px"
   x="0px"
   id="Layer_1"
   version="1.1"><metadata
   id="metadata966"><rdf:RDF><cc:Work
       rdf:about=""><dc:format>image/svg+xml</dc:format><dc:type
         rdf:resource="http://purl.org/dc/dcmitype/StillImage" /></cc:Work></rdf:RDF></metadata><defs
   id="defs964" /><sodipodi:namedview
   inkscape:current-layer="Layer_1"
   inkscape:window-maximized="0"
   inkscape:window-y="23"
   inkscape:window-x="0"
   inkscape:cy="634.95822"
   inkscape:cx="1451.34"
   inkscape:zoom="0.35277743"
   showgrid="false"
   id="namedview962"
   inkscape:window-height="676"
   inkscape:window-width="1143"
   inkscape:pageshadow="2"
   inkscape:pageopacity="0"
   guidetolerance="10"
   gridtolerance="10"
   objecttolerance="10"
   borderopacity="1"
   inkscape:document-rotation="0"
   bordercolor="#666666"
   pagecolor="#ffffff" />
<style
   id="style833"
   type="text/css">
	.st0{fill:none;stroke:#FF0000;stroke-width:1.000000e-03;stroke-miterlimit:10;}
</style>
<path
   class="st0"
   d="m 1876.9292,523.84137 a 5.6524329,5.6524329 0 0 1 -5.6525,5.65243 5.6524329,5.6524329 0 0 1 -5.6524,-5.65243 5.6524329,5.6524329 0 0 1 5.6524,-5.65243 5.6524329,5.6524329 0 0 1 5.6525,5.65243"
   style="fill:none;stroke:#ff0000;stroke-width:1.32998;stroke-miterlimit:10"
   id="circle835" />
<path
   class="st0"
   d="m 1876.9292,305.19193 a 5.6524329,5.6524329 0 0 1 -5.6525,5.65243 5.6524329,5.6524329 0 0 1 -5.6524,-5.65243 5.6524329,5.6524329 0 0 1 5.6524,-5.65244 5.6524329,5.6524329 0 0 1 5.6525,5.65244"
   style="fill:none;stroke:#ff0000;stroke-width:1.32998;stroke-miterlimit:10"
   id="circle837" />
<path
   class="st0"
   d="m 1816.4148,413.99792 a 15.082022,15.082022 0 0 1 -15.082,15.08203 15.082022,15.082022 0 0 1 -15.0821,-15.08203 15.082022,15.082022 0 0 1 15.0821,-15.08202 15.082022,15.082022 0 0 1 15.082,15.08202"
   style="fill:none;stroke:#ff0000;stroke-width:1.32998;stroke-miterlimit:10"
   id="circle839" />
<path
   inkscape:connector-curvature="0"
   id="path841"
   d="m 1871.157,284.12499 v 0 c -10.7729,0 -19.5109,8.738 -19.5109,19.51087 v 41.58861 c 0,15.16182 -12.289,27.45087 -27.4509,27.45087 h -20.5482 c -15.8268,0 -28.6612,12.83435 -28.6612,28.66116 v 26.36029 c 0,15.82681 12.8344,28.66116 28.6612,28.66116 h 22.0777 c 14.55,0 26.5731,11.34477 27.411,25.86819 l 2.7398,47.67994 c 0.4654,8.0996 7.1686,14.43033 15.2815,14.43033 v 0 c 10.7728,0 19.5108,-8.738 19.5108,-19.51087 V 303.64916 c 0,-10.78617 -8.738,-19.52417 -19.5108,-19.52417 z"
   class="st0" />
<path
   class="st0"
   d="m 1815.7498,523.84137 a 5.6524329,5.6524329 0 0 1 -5.6524,5.65243 5.6524329,5.6524329 0 0 1 -5.6524,-5.65243 5.6524329,5.6524329 0 0 1 5.6524,-5.65243 5.6524329,5.6524329 0 0 1 5.6524,5.65243"
   style="fill:none;stroke:#ff0000;stroke-width:1.32998;stroke-miterlimit:10"
   id="circle843" />
<path
   class="st0"
   d="m 1815.7498,305.19193 a 5.6524329,5.6524329 0 0 1 -5.6524,5.65243 5.6524329,5.6524329 0 0 1 -5.6524,-5.65243 5.6524329,5.6524329 0 0 1 5.6524,-5.65244 5.6524329,5.6524329 0 0 1 5.6524,5.65244"
   style="fill:none;stroke:#ff0000;stroke-width:1.32998;stroke-miterlimit:10"
   id="circle845" />
<path
   class="st0"
   d="m 1735.9508,523.84137 a 5.6524329,5.6524329 0 0 1 -5.6525,5.65243 5.6524329,5.6524329 0 0 1 -5.6524,-5.65243 5.6524329,5.6524329 0 0 1 5.6524,-5.65243 5.6524329,5.6524329 0 0 1 5.6525,5.65243"
   style="fill:none;stroke:#ff0000;stroke-width:1.32998;stroke-miterlimit:10"
   id="circle847" />
<path
   class="st0"
   d="m 1735.9508,305.19193 a 5.6524329,5.6524329 0 0 1 -5.6525,5.65243 5.6524329,5.6524329 0 0 1 -5.6524,-5.65243 5.6524329,5.6524329 0 0 1 5.6524,-5.65244 5.6524329,5.6524329 0 0 1 5.6525,5.65244"
   style="fill:none;stroke:#ff0000;stroke-width:1.32998;stroke-miterlimit:10"
   id="circle849" />
<path
   class="st0"
   d="m 1522.608,487.0141 a 15.082022,15.082022 0 0 1 -15.082,15.08202 15.082022,15.082022 0 0 1 -15.082,-15.08202 15.082022,15.082022 0 0 1 15.082,-15.08202 15.082022,15.082022 0 0 1 15.082,15.08202"
   style="fill:none;stroke:#ff0000;stroke-width:1.32998;stroke-miterlimit:10"
   id="circle851" />
<path
   class="st0"
   d="m 1475.4735,562.41089 a 5.6524329,5.6524329 0 0 1 -5.6525,5.65243 5.6524329,5.6524329 0 0 1 -5.6524,-5.65243 5.6524329,5.6524329 0 0 1 5.6524,-5.65243 5.6524329,5.6524329 0 0 1 5.6525,5.65243"
   style="fill:none;stroke:#ff0000;stroke-width:1.32998;stroke-miterlimit:10"
   id="circle853" />
<path
   class="st0"
   d="m 1475.4735,411.60397 a 5.6524329,5.6524329 0 0 1 -5.6525,5.65244 5.6524329,5.6524329 0 0 1 -5.6524,-5.65244 5.6524329,5.6524329 0 0 1 5.6524,-5.65243 5.6524329,5.6524329 0 0 1 5.6525,5.65243"
   style="fill:none;stroke:#ff0000;stroke-width:1.32998;stroke-miterlimit:10"
   id="circle855" />
<path
   inkscape:connector-curvature="0"
   id="path857"
   d="m 1453.2759,403.13198 v 167.75091 c 0,8.5651 6.9425,15.50762 15.5076,15.50762 v 0 c 8.5651,0 15.5077,-6.94252 15.5077,-15.50762 v -49.54191 c 0,-6.46372 5.2401,-11.70386 11.7038,-11.70386 h 17.2765 v -0.77139 c 9.6956,-2.55357 16.8642,-11.35807 16.8642,-21.85164 0,-10.49358 -7.1686,-19.29807 -16.8642,-21.85164 v -0.0266 h -0.1064 c -1.8088,-0.4655 -3.6973,-0.7448 -5.6524,-0.7448 -1.9551,0 -3.8437,0.2793 -5.6524,0.7448 0,0 0,0 0,0 h -6.7431 c -5.9849,0 -10.826,-4.85445 -10.826,-10.82608 v -51.16449 c 0,-8.5651 -6.9426,-15.50762 -15.5077,-15.50762 v 0 c -8.5651,-0.0133 -15.5076,6.92922 -15.5076,15.49432 z"
   class="st0" />
<path
   class="st0"
   d="m 1662.5356,392.58521 a 15.082022,15.082022 0 0 1 -15.082,15.08202 15.082022,15.082022 0 0 1 -15.082,-15.08202 15.082022,15.082022 0 0 1 15.082,-15.08203 15.082022,15.082022 0 0 1 15.082,15.08203"
   style="fill:none;stroke:#ff0000;stroke-width:1.32998;stroke-miterlimit:10"
   id="circle859" />
<path
   class="st0"
   d="m 1690.8111,317.17511 a 5.6524329,5.6524329 0 0 1 -5.6524,5.65243 5.6524329,5.6524329 0 0 1 -5.6524,-5.65243 5.6524329,5.6524329 0 0 1 5.6524,-5.65243 5.6524329,5.6524329 0 0 1 5.6524,5.65243"
   style="fill:none;stroke:#ff0000;stroke-width:1.32998;stroke-miterlimit:10"
   id="circle861" />
<path
   class="st0"
   d="m 1690.8111,467.98203 a 5.6524329,5.6524329 0 0 1 -5.6524,5.65243 5.6524329,5.6524329 0 0 1 -5.6524,-5.65243 5.6524329,5.6524329 0 0 1 5.6524,-5.65244 5.6524329,5.6524329 0 0 1 5.6524,5.65244"
   style="fill:none;stroke:#ff0000;stroke-width:1.32998;stroke-miterlimit:10"
   id="circle863" />
<path
   inkscape:connector-curvature="0"
   id="path865"
   d="M 1701.7037,476.45401 V 308.7031 c 0,-8.5651 -6.9425,-15.50762 -15.5076,-15.50762 v 0 c -8.5651,0 -15.5076,6.94252 -15.5076,15.50762 v 49.54191 c 0,6.46373 -5.2402,11.70386 -11.7039,11.70386 h -17.2765 v 0.7714 c -9.6956,2.55356 -16.8642,11.35806 -16.8642,21.85164 0,10.49357 7.1686,19.29807 16.8642,21.85164 v 0.0266 h 0.1064 c 1.8088,0.46549 3.6973,0.74479 5.6524,0.74479 1.9551,0 3.8437,-0.2793 5.6525,-0.74479 0,0 0,0 0,0 h 6.743 c 5.9849,0 10.8261,4.85444 10.8261,10.82607 v 51.16449 c 0,8.5651 6.9425,15.50762 15.5076,15.50762 v 0 c 8.5651,0.0133 15.5076,-6.92922 15.5076,-15.49432 z"
   class="st0" />
<path
   class="st0"
   d="m 1654.2765,445.78458 a 15.082022,15.082022 0 0 1 -15.082,15.08202 15.082022,15.082022 0 0 1 -15.0821,-15.08202 15.082022,15.082022 0 0 1 15.0821,-15.08203 15.082022,15.082022 0 0 1 15.082,15.08203"
   style="fill:none;stroke:#ff0000;stroke-width:1.32998;stroke-miterlimit:10"
   id="circle867" />
<path
   class="st0"
   d="m 1607.1419,521.1814 a 5.6524329,5.6524329 0 0 1 -5.6524,5.65243 5.6524329,5.6524329 0 0 1 -5.6524,-5.65243 5.6524329,5.6524329 0 0 1 5.6524,-5.65244 5.6524329,5.6524329 0 0 1 5.6524,5.65244"
   style="fill:none;stroke:#ff0000;stroke-width:1.32998;stroke-miterlimit:10"
   id="circle869" />
<path
   class="st0"
   d="m 1607.1419,370.37448 a 5.6524329,5.6524329 0 0 1 -5.6524,5.65243 5.6524329,5.6524329 0 0 1 -5.6524,-5.65243 5.6524329,5.6524329 0 0 1 5.6524,-5.65243 5.6524329,5.6524329 0 0 1 5.6524,5.65243"
   style="fill:none;stroke:#ff0000;stroke-width:1.32998;stroke-miterlimit:10"
   id="circle871" />
<path
   inkscape:connector-curvature="0"
   id="path873"
   d="m 1584.9444,361.90247 v 167.75091 c 0,8.5651 6.9425,15.50762 15.5076,15.50762 v 0 c 8.5651,0 15.5076,-6.94252 15.5076,-15.50762 v -49.54191 c 0,-6.46373 5.2401,-11.70386 11.7039,-11.70386 h 17.2765 v -0.77139 c 9.6955,-2.55357 16.8642,-11.35807 16.8642,-21.85164 0,-10.49358 -7.1687,-19.29808 -16.8642,-21.85165 v -0.0266 h -0.1064 c -1.8088,-0.46549 -3.6974,-0.74479 -5.6525,-0.74479 -1.9551,0 -3.8436,0.2793 -5.6524,0.74479 0,0 0,0 0,0 h -6.743 c -5.985,0 -10.8261,-4.85444 -10.8261,-10.82607 v -51.16449 c 0,-8.5651 -6.9425,-15.50762 -15.5076,-15.50762 v 0 c -8.5651,-0.0133 -15.5076,6.92922 -15.5076,15.49432 z"
   class="st0" />
<path
   class="st0"
   d="m 1529.5372,433.81473 a 15.082022,15.082022 0 0 1 -15.082,15.08202 15.082022,15.082022 0 0 1 -15.082,-15.08202 15.082022,15.082022 0 0 1 15.082,-15.08202 15.082022,15.082022 0 0 1 15.082,15.08202"
   style="fill:none;stroke:#ff0000;stroke-width:1.32998;stroke-miterlimit:10"
   id="circle875" />
<path
   class="st0"
   d="m 1557.8127,358.4046 a 5.6524329,5.6524329 0 0 1 -5.6524,5.65243 5.6524329,5.6524329 0 0 1 -5.6525,-5.65243 5.6524329,5.6524329 0 0 1 5.6525,-5.65243 5.6524329,5.6524329 0 0 1 5.6524,5.65243"
   style="fill:none;stroke:#ff0000;stroke-width:1.32998;stroke-miterlimit:10"
   id="circle877" />
<path
   class="st0"
   d="m 1557.8127,509.21155 a 5.6524329,5.6524329 0 0 1 -5.6524,5.65243 5.6524329,5.6524329 0 0 1 -5.6525,-5.65243 5.6524329,5.6524329 0 0 1 5.6525,-5.65244 5.6524329,5.6524329 0 0 1 5.6524,5.65244"
   style="fill:none;stroke:#ff0000;stroke-width:1.32998;stroke-miterlimit:10"
   id="circle879" />
<path
   inkscape:connector-curvature="0"
   id="path881"
   d="M 1568.7053,517.68352 V 349.93261 c 0,-8.5651 -6.9426,-15.50761 -15.5077,-15.50761 v 0 c -8.5651,0 -15.5076,6.94251 -15.5076,15.50761 v 49.54191 c 0,6.46373 -5.2401,11.70387 -11.7038,11.70387 h -17.2765 v 0.77139 c -9.6956,2.55357 -16.8642,11.35806 -16.8642,21.85164 0,10.49357 7.1686,19.29807 16.8642,21.85164 v 0.0266 h 0.1064 c 1.8087,0.46549 3.6973,0.74479 5.6524,0.74479 1.9551,0 3.8437,-0.2793 5.6524,-0.74479 0,0 0,0 0,0 h 6.7431 c 5.9849,0 10.826,4.85444 10.826,10.82607 v 51.16449 c 0,8.5651 6.9425,15.50762 15.5076,15.50762 v 0 c 8.5651,0.0133 15.5077,-6.92922 15.5077,-15.49432 z"
   class="st0" />
<path
   class="st0"
   d="m 1712.3968,727.18268 a 3.7638552,3.7638552 0 0 1 -3.7639,3.76385 3.7638552,3.7638552 0 0 1 -3.7638,-3.76385 3.7638552,3.7638552 0 0 1 3.7638,-3.76386 3.7638552,3.7638552 0 0 1 3.7639,3.76386"
   style="fill:none;stroke:#ff0000;stroke-width:1.32998;stroke-miterlimit:10"
   id="circle883" />
<path
   class="st0"
   d="m 1655.8459,904.37646 a 5.6524329,5.6524329 0 0 1 -5.6524,5.65244 5.6524329,5.6524329 0 0 1 -5.6525,-5.65244 5.6524329,5.6524329 0 0 1 5.6525,-5.65243 5.6524329,5.6524329 0 0 1 5.6524,5.65243"
   style="fill:none;stroke:#ff0000;stroke-width:1.32998;stroke-miterlimit:10"
   id="circle885" />
<path
   class="st0"
   d="m 1874.5085,904.37646 a 5.6524329,5.6524329 0 0 1 -5.6524,5.65244 5.6524329,5.6524329 0 0 1 -5.6525,-5.65244 5.6524329,5.6524329 0 0 1 5.6525,-5.65243 5.6524329,5.6524329 0 0 1 5.6524,5.65243"
   style="fill:none;stroke:#ff0000;stroke-width:1.32998;stroke-miterlimit:10"
   id="circle887" />
<path
   class="st0"
   d="m 1655.2606,655.54968 a 5.6524329,5.6524329 0 0 1 -5.6524,5.65244 5.6524329,5.6524329 0 0 1 -5.6525,-5.65244 5.6524329,5.6524329 0 0 1 5.6525,-5.65243 5.6524329,5.6524329 0 0 1 5.6524,5.65243"
   style="fill:none;stroke:#ff0000;stroke-width:1.32998;stroke-miterlimit:10"
   id="circle889" />
<path
   class="st0"
   d="m 1774.0282,689.4776 a 15.082022,15.082022 0 0 1 -15.082,15.08202 15.082022,15.082022 0 0 1 -15.0821,-15.08202 15.082022,15.082022 0 0 1 15.0821,-15.08202 15.082022,15.082022 0 0 1 15.082,15.08202"
   style="fill:none;stroke:#ff0000;stroke-width:1.32998;stroke-miterlimit:10"
   id="circle891" />
<path
   class="st0"
   d="m 1873.9234,655.54968 a 5.6524329,5.6524329 0 0 1 -5.6524,5.65244 5.6524329,5.6524329 0 0 1 -5.6524,-5.65244 5.6524329,5.6524329 0 0 1 5.6524,-5.65243 5.6524329,5.6524329 0 0 1 5.6524,5.65243"
   style="fill:none;stroke:#ff0000;stroke-width:1.32998;stroke-miterlimit:10"
   id="circle893" />
<path
   class="st0"
   d="m 1655.2606,580.13959 a 5.6524329,5.6524329 0 0 1 -5.6524,5.65243 5.6524329,5.6524329 0 0 1 -5.6525,-5.65243 5.6524329,5.6524329 0 0 1 5.6525,-5.65244 5.6524329,5.6524329 0 0 1 5.6524,5.65244"
   style="fill:none;stroke:#ff0000;stroke-width:1.32998;stroke-miterlimit:10"
   id="circle895" />
<path
   class="st0"
   d="m 1873.9234,580.13959 a 5.6524329,5.6524329 0 0 1 -5.6524,5.65243 5.6524329,5.6524329 0 0 1 -5.6524,-5.65243 5.6524329,5.6524329 0 0 1 5.6524,-5.65244 5.6524329,5.6524329 0 0 1 5.6524,5.65244"
   style="fill:none;stroke:#ff0000;stroke-width:1.32998;stroke-miterlimit:10"
   id="circle897" />
<path
   class="st0"
   d="m 1655.9522,617.84467 a 5.6524329,5.6524329 0 0 1 -5.6524,5.65243 5.6524329,5.6524329 0 0 1 -5.6524,-5.65243 5.6524329,5.6524329 0 0 1 5.6524,-5.65244 5.6524329,5.6524329 0 0 1 5.6524,5.65244"
   style="fill:none;stroke:#ff0000;stroke-width:1.32998;stroke-miterlimit:10"
   id="circle899" />
<path
   class="st0"
   d="m 1874.615,617.84467 a 5.6524329,5.6524329 0 0 1 -5.6525,5.65243 5.6524329,5.6524329 0 0 1 -5.6524,-5.65243 5.6524329,5.6524329 0 0 1 5.6524,-5.65244 5.6524329,5.6524329 0 0 1 5.6525,5.65244"
   style="fill:none;stroke:#ff0000;stroke-width:1.32998;stroke-miterlimit:10"
   id="circle901" />
<path
   class="st0"
   d="m 1814.1938,727.18268 a 3.7638552,3.7638552 0 0 1 -3.7639,3.76385 3.7638552,3.7638552 0 0 1 -3.7638,-3.76385 3.7638552,3.7638552 0 0 1 3.7638,-3.76386 3.7638552,3.7638552 0 0 1 3.7639,3.76386"
   style="fill:none;stroke:#ff0000;stroke-width:1.32998;stroke-miterlimit:10"
   id="circle903" />
<path
   class="st0"
   d="m 1712.3968,897.96594 a 3.7638552,3.7638552 0 0 1 -3.7639,3.76386 3.7638552,3.7638552 0 0 1 -3.7638,-3.76386 3.7638552,3.7638552 0 0 1 3.7638,-3.76385 3.7638552,3.7638552 0 0 1 3.7639,3.76385"
   style="fill:none;stroke:#ff0000;stroke-width:1.32998;stroke-miterlimit:10"
   id="circle905" />
<path
   class="st0"
   d="m 1810.4166,895.69159 a 3.7638552,3.7638552 0 0 1 -3.7639,3.76385 3.7638552,3.7638552 0 0 1 -3.7638,-3.76385 3.7638552,3.7638552 0 0 1 3.7638,-3.76386 3.7638552,3.7638552 0 0 1 3.7639,3.76386"
   style="fill:none;stroke:#ff0000;stroke-width:1.32998;stroke-miterlimit:10"
   id="circle907" />
<path
   inkscape:connector-curvature="0"
   id="path909"
   d="m 1760.9545,904.37644 h -15.4012 c -24.126,0 -43.69,-19.56407 -43.69,-43.68998 v -95.45297 c 0,-24.12592 19.564,-43.68998 43.69,-43.68998 h 28.1424 c 24.1259,0 43.69,19.56406 43.69,43.68998 v 82.71172 c 0.013,31.14823 -25.2564,56.43123 -56.4312,56.43123 z"
   class="st0" />
<path
   inkscape:connector-curvature="0"
   id="path911"
   d="m 1871.7023,561.4134 h -26.1874 c -5.852,0 -10.6,4.74805 -10.6,10.59998 v 0 c 0,4.74804 0.1729,65.27562 0.1729,77.88387 0,5.65244 -4.0963,7.54102 -10.7729,7.54102 h -117.5972 c -2.3673,0 -10.4271,-1.88858 -10.7595,-10.62658 -0.5054,-12.79445 0.1728,-70.23647 0.1728,-74.79831 v 0 c 0,-5.85193 -4.748,-10.59998 -10.5999,-10.59998 h -37.9844 c -10.3473,0 -18.7395,8.3922 -18.7395,18.73948 l -0.3457,325.48704 c 0,10.34728 8.3922,18.73948 18.7394,18.73948 h 224.129 c 10.3472,0 18.7394,-8.3922 18.7394,-18.73948 l 0.3458,-325.48704 c 0.027,-10.36058 -8.3656,-18.73948 -18.7128,-18.73948 z"
   class="st0" />
<path
   class="st0"
   d="m 1604.5616,919.35211 a 5.6524329,5.6524329 0 0 1 -5.6524,5.65243 5.6524329,5.6524329 0 0 1 -5.6525,-5.65243 5.6524329,5.6524329 0 0 1 5.6525,-5.65243 5.6524329,5.6524329 0 0 1 5.6524,5.65243"
   style="fill:none;stroke:#ff0000;stroke-width:1.32998;stroke-miterlimit:10"
   id="circle913" />
<path
   class="st0"
   d="m 1570.4076,832.63708 a 5.6524329,5.6524329 0 0 1 -5.6525,5.65244 5.6524329,5.6524329 0 0 1 -5.6524,-5.65244 5.6524329,5.6524329 0 0 1 5.6524,-5.65243 5.6524329,5.6524329 0 0 1 5.6525,5.65243"
   style="fill:none;stroke:#ff0000;stroke-width:1.32998;stroke-miterlimit:10"
   id="circle915" />
<path
   class="st0"
   d="m 1385.8989,919.35211 a 5.6524329,5.6524329 0 0 1 -5.6524,5.65243 5.6524329,5.6524329 0 0 1 -5.6525,-5.65243 5.6524329,5.6524329 0 0 1 5.6525,-5.65243 5.6524329,5.6524329 0 0 1 5.6524,5.65243"
   style="fill:none;stroke:#ff0000;stroke-width:1.32998;stroke-miterlimit:10"
   id="circle917" />
<path
   class="st0"
   d="m 1419.6008,832.63708 a 5.6524329,5.6524329 0 0 1 -5.6524,5.65244 5.6524329,5.6524329 0 0 1 -5.6525,-5.65244 5.6524329,5.6524329 0 0 1 5.6525,-5.65243 5.6524329,5.6524329 0 0 1 5.6524,5.65243"
   style="fill:none;stroke:#ff0000;stroke-width:1.32998;stroke-miterlimit:10"
   id="circle919" />
<path
   class="st0"
   d="m 1570.8864,571.72083 a 5.6524329,5.6524329 0 0 1 -5.6524,5.65243 5.6524329,5.6524329 0 0 1 -5.6524,-5.65243 5.6524329,5.6524329 0 0 1 5.6524,-5.65244 5.6524329,5.6524329 0 0 1 5.6524,5.65244"
   style="fill:none;stroke:#ff0000;stroke-width:1.32998;stroke-miterlimit:10"
   id="circle921" />
<path
   class="st0"
   d="m 1420.0929,571.72083 a 5.6524329,5.6524329 0 0 1 -5.6525,5.65243 5.6524329,5.6524329 0 0 1 -5.6524,-5.65243 5.6524329,5.6524329 0 0 1 5.6524,-5.65244 5.6524329,5.6524329 0 0 1 5.6525,5.65244"
   style="fill:none;stroke:#ff0000;stroke-width:1.32998;stroke-miterlimit:10"
   id="circle923" />
<path
   inkscape:connector-curvature="0"
   id="path925"
   d="m 1605.067,583.42464 c -2.4471,-2.51367 -5.7322,-3.96335 -7.9799,-6.64992 -0.8911,-1.06399 -2.8062,-1.82208 -3.9899,-2.65997 l -14.6299,-10.63987 c -7.541,-5.35984 -18.6197,-7.97991 -26.5996,-2.65997 v 0 c -5.3599,7.54101 -6.916,18.61978 0.6118,23.96632 l 8.698,6.62332 c 8.3524,5.94503 9.2301,12.20925 9.2301,22.46343 v 187.95337 c 0,8.6582 -7.0223,15.66722 -15.6805,15.65392 h -0.4522 v 0 c -3.0456,0 -5.7455,2.02157 -6.5169,4.96084 -6.7563,25.94799 -30.3369,45.11306 -58.4129,45.11306 -28.0627,0 -51.6433,-19.16507 -58.4129,-45.11306 -0.7714,-2.93927 -3.4713,-4.96084 -6.5169,-4.96084 h -0.9443 -0.1596 c -8.2725,0.0133 -15.0288,-6.75632 -15.0288,-15.01552 V 623.51037 c 0,-8.339 2.5402,-16.61151 7.8203,-23.07523 0.2527,-0.3059 0.4921,-0.62509 0.7182,-0.94429 l 8.6981,-12.07625 c 5.7189,-8.03311 9.3497,-19.53747 1.3299,-25.2697 v 0 c -8.0198,-5.71894 -22.224,-4.04316 -27.9296,3.98995 l -13.2999,11.96986 c -3.152,4.44214 -5.3199,5.31993 -6.6499,7.9799 l -10.6399,15.95981 c -3.9899,10.63988 -3.9899,10.63988 -4.6948,18.61978 v 256.68696 14.09783 22.21074 c 0,12.50185 10.2276,22.71613 22.7161,22.71613 H 1593.31 c 12.5018,0 22.7161,-10.22758 22.7161,-22.71613 v -24.48501 -9.90839 l -0.3192,-273.23196 c 0,-7.7139 -3.6442,-15.42781 -10.6399,-22.60973 z"
   class="st0" />
<path
   class="st0"
   d="m 1386.1517,633.80444 a 5.6524329,5.6524329 0 0 1 -5.6524,5.65244 5.6524329,5.6524329 0 0 1 -5.6525,-5.65244 5.6524329,5.6524329 0 0 1 5.6525,-5.65243 5.6524329,5.6524329 0 0 1 5.6524,5.65243"
   style="fill:none;stroke:#ff0000;stroke-width:1.32998;stroke-miterlimit:10"
   id="circle927" />
<path
   class="st0"
   d="m 1604.8144,633.80444 a 5.6524329,5.6524329 0 0 1 -5.6524,5.65244 5.6524329,5.6524329 0 0 1 -5.6524,-5.65244 5.6524329,5.6524329 0 0 1 5.6524,-5.65243 5.6524329,5.6524329 0 0 1 5.6524,5.65243"
   style="fill:none;stroke:#ff0000;stroke-width:1.32998;stroke-miterlimit:10"
   id="circle929" />
<path
   class="st0"
   d="m 1522.9405,781.1933 a 5.6524329,5.6524329 0 0 1 -5.6524,5.65243 5.6524329,5.6524329 0 0 1 -5.6524,-5.65243 5.6524329,5.6524329 0 0 1 5.6524,-5.65243 5.6524329,5.6524329 0 0 1 5.6524,5.65243"
   style="fill:none;stroke:#ff0000;stroke-width:1.32998;stroke-miterlimit:10"
   id="circle931" />
<path
   class="st0"
   d="m 1522.9405,630.38635 a 5.6524329,5.6524329 0 0 1 -5.6524,5.65244 5.6524329,5.6524329 0 0 1 -5.6524,-5.65244 5.6524329,5.6524329 0 0 1 5.6524,-5.65243 5.6524329,5.6524329 0 0 1 5.6524,5.65243"
   style="fill:none;stroke:#ff0000;stroke-width:1.32998;stroke-miterlimit:10"
   id="circle933" />
<path
   inkscape:connector-curvature="0"
   id="path935"
   d="m 1533.2479,629.083 v 153.87918 c 0,8.77789 -7.1819,15.95981 -15.9598,15.95981 v 0 c -8.7779,0 -15.9598,-7.18192 -15.9598,-15.95981 V 629.083 c 0,-8.77789 7.1819,-15.95981 15.9598,-15.95981 v 0 c 8.7779,0 15.9598,7.18192 15.9598,15.95981 z"
   class="st0" />
<path
   class="st0"
   d="m 1490.316,311.004 a 5.6524329,5.6524329 0 0 1 -5.6524,5.65243 5.6524329,5.6524329 0 0 1 -5.6525,-5.65243 5.6524329,5.6524329 0 0 1 5.6525,-5.65244 5.6524329,5.6524329 0 0 1 5.6524,5.65244"
   style="fill:none;stroke:#ff0000;stroke-width:1.32998;stroke-miterlimit:10"
   id="circle937" />
<path
   class="st0"
   d="m 1641.1229,311.004 a 5.6524329,5.6524329 0 0 1 -5.6524,5.65243 5.6524329,5.6524329 0 0 1 -5.6525,-5.65243 5.6524329,5.6524329 0 0 1 5.6525,-5.65244 5.6524329,5.6524329 0 0 1 5.6524,5.65244"
   style="fill:none;stroke:#ff0000;stroke-width:1.32998;stroke-miterlimit:10"
   id="circle939" />
<path
   class="st0"
   d="m 1419.8267,918.80676 a 5.6524329,5.6524329 0 0 1 -5.6524,5.65244 5.6524329,5.6524329 0 0 1 -5.6524,-5.65244 5.6524329,5.6524329 0 0 1 5.6524,-5.65243 5.6524329,5.6524329 0 0 1 5.6524,5.65243"
   style="fill:none;stroke:#ff0000;stroke-width:1.32998;stroke-miterlimit:10"
   id="circle941" />
<path
   class="st0"
   d="m 1570.6338,918.80676 a 5.6524329,5.6524329 0 0 1 -5.6525,5.65244 5.6524329,5.6524329 0 0 1 -5.6524,-5.65244 5.6524329,5.6524329 0 0 1 5.6524,-5.65243 5.6524329,5.6524329 0 0 1 5.6525,5.65243"
   style="fill:none;stroke:#ff0000;stroke-width:1.32998;stroke-miterlimit:10"
   id="circle943" />
<path
   inkscape:connector-curvature="0"
   id="path945"
   d="M 1636.7872,326.96378 H 1482.908 c -8.7779,0 -15.9598,-7.18191 -15.9598,-15.95981 v 0 c 0,-8.77789 7.1819,-15.95981 15.9598,-15.95981 h 153.8792 c 8.7778,0 15.9598,7.18192 15.9598,15.95981 v 0 c 0,8.7779 -7.182,15.95981 -15.9598,15.95981 z"
   class="st0" />
<path
   class="st0"
   d="m 1425.8517,513.86646 a 5.6524329,5.6524329 0 0 1 -5.6525,5.65243 5.6524329,5.6524329 0 0 1 -5.6524,-5.65243 5.6524329,5.6524329 0 0 1 5.6524,-5.65244 5.6524329,5.6524329 0 0 1 5.6525,5.65244"
   style="fill:none;stroke:#ff0000;stroke-width:1.32998;stroke-miterlimit:10"
   id="circle947" />
<path
   class="st0"
   d="m 1425.8517,363.05954 a 5.6524329,5.6524329 0 0 1 -5.6525,5.65243 5.6524329,5.6524329 0 0 1 -5.6524,-5.65243 5.6524329,5.6524329 0 0 1 5.6524,-5.65243 5.6524329,5.6524329 0 0 1 5.6525,5.65243"
   style="fill:none;stroke:#ff0000;stroke-width:1.32998;stroke-miterlimit:10"
   id="circle949" />
<path
   inkscape:connector-curvature="0"
   id="path951"
   d="m 1436.159,361.75617 v 153.87918 c 0,8.77789 -7.1819,15.95981 -15.9598,15.95981 v 0 c -8.7779,0 -15.9598,-7.18192 -15.9598,-15.95981 V 361.75617 c 0,-8.77789 7.1819,-15.95981 15.9598,-15.95981 v 0 c 8.7779,0 15.9598,7.18192 15.9598,15.95981 z"
   class="st0" />
<path
   class="st0"
   d="m 1467.0811,781.1933 a 5.6524329,5.6524329 0 0 1 -5.6524,5.65243 5.6524329,5.6524329 0 0 1 -5.6524,-5.65243 5.6524329,5.6524329 0 0 1 5.6524,-5.65243 5.6524329,5.6524329 0 0 1 5.6524,5.65243"
   style="fill:none;stroke:#ff0000;stroke-width:1.32998;stroke-miterlimit:10"
   id="circle953" />
<path
   class="st0"
   d="m 1467.0811,630.38635 a 5.6524329,5.6524329 0 0 1 -5.6524,5.65244 5.6524329,5.6524329 0 0 1 -5.6524,-5.65244 5.6524329,5.6524329 0 0 1 5.6524,-5.65243 5.6524329,5.6524329 0 0 1 5.6524,5.65243"
   style="fill:none;stroke:#ff0000;stroke-width:1.32998;stroke-miterlimit:10"
   id="circle955" />
<path
   inkscape:connector-curvature="0"
   id="path957"
   d="m 1477.3885,629.083 v 153.87918 c 0,8.77789 -7.1819,15.95981 -15.9598,15.95981 v 0 c -8.7779,0 -15.9598,-7.18192 -15.9598,-15.95981 V 629.083 c 0,-8.77789 7.1819,-15.95981 15.9598,-15.95981 v 0 c 8.7779,0 15.9598,7.18192 15.9598,15.95981 z"
   class="st0" />
<path
   inkscape:connector-curvature="0"
   id="path959"
   d="m 1811.8796,325.4077 c 11.3846,0 20.6147,-9.23009 20.6147,-20.61475 v 0 c 0,-11.38467 -9.2301,-20.61476 -20.6147,-20.61476 h -61.8443 -15.2948 -1.5029 c -10.5601,0 -19.1119,8.5518 -19.1119,19.11187 v 1.50289 0 218.11741 0 1.50288 c 0,10.56008 8.5518,19.11188 19.1119,19.11188 h 1.5029 15.2948 61.8443 c 11.3846,0 20.6147,-9.23009 20.6147,-20.61476 v 0 c 0,-11.38466 -9.2301,-20.61475 -20.6147,-20.61475 h -46.4298 c -8.5119,0 -15.4145,-6.90262 -15.4145,-15.41452 V 340.82222 c 0,-8.5119 6.9026,-15.41452 15.4145,-15.41452 z"
   class="st0" />
</svg>
